<svg preserveAspectRatio="none" width="100%" height="100%" overflow="visible" style="display: block;" viewBox="0 0 32 32" fill="none" xmlns="http://www.w3.org/2000/svg">
<g id="brazil" clip-path="url(#clip0_0_70)">
<path id="Vector" d="M15.9998 31.9999C24.8364 31.9999 31.9998 24.8364 31.9998 15.9999C31.9998 7.1633 24.8364 -0.000146159 15.9998 -0.000146159C7.16327 -0.000146159 -0.00016893 7.1633 -0.00016893 15.9999C-0.00016893 24.8364 7.16327 31.9999 15.9998 31.9999Z" fill="var(--fill-0, #6DA544)"/>
<path id="Vector_2" d="M15.9972 6.26082L29.2146 15.9999L15.9972 25.7391L2.77988 15.9999L15.9972 6.26082Z" fill="var(--fill-0, #FFDA44)"/>
<path id="Vector_3" d="M15.9993 21.5652C19.0729 21.5652 21.5645 19.0735 21.5645 16C21.5645 12.9264 19.0729 10.4348 15.9993 10.4348C12.9257 10.4348 10.4341 12.9264 10.4341 16C10.4341 19.0735 12.9257 21.5652 15.9993 21.5652Z" fill="var(--fill-0, #F0F0F0)"/>
<g id="Group">
<path id="Vector_4" d="M13.2167 15.6524C12.2489 15.6524 11.315 15.7996 10.4359 16.0727C10.4748 19.1127 12.9501 21.5655 15.9993 21.5655C17.8848 21.5655 19.5501 20.6269 20.5567 19.1925C18.8344 17.0364 16.1844 15.6524 13.2167 15.6524V15.6524Z" fill="var(--fill-0, #0052B4)"/>
<path id="Vector_5" d="M21.4584 17.0661C21.5254 16.7208 21.5616 16.3646 21.5616 15.9998C21.5616 12.9262 19.07 10.4346 15.9964 10.4346C13.703 10.4346 11.7343 11.8222 10.8823 13.8033C11.6354 13.6472 12.4152 13.5651 13.2139 13.5651C16.4462 13.565 19.3703 14.9086 21.4584 17.0661V17.0661Z" fill="var(--fill-0, #0052B4)"/>
</g>
</g>
<defs>
<clipPath id="clip0_0_70">
<rect width="32" height="32" fill="white"/>
</clipPath>
</defs>
</svg>
